# xmcd CD database file
#
# Track frame offsets:
#	150
#	41275
#	64726
#	90117
#	136128
#	161348
#	185875
#
# Disc length: 2951 seconds
#
# Revision: 2
# Processed by: cddbd v1.5.1PL2 Copyright (c) Steve Scherf et al.
# Submitted via: CD2WAV32(JP) R3.22
#
DISCID=4e0b8507
DTITLE=Lou Donaldson - The Natural Soul
DYEAR=1962
DGENRE=Jazz
TTITLE0=Funky Mama
TTITLE1=Love Walked In
TTITLE2=Spaceman Twist
TTITLE3=Sow Belly Blues
TTITLE4=That's All
TTITLE5=Nice 'n Greasy
TTITLE6=People Will Say We're In Love
EXTD=
EXTT0=
EXTT1=
EXTT2=
EXTT3=
EXTT4=
EXTT5=
EXTT6=
PLAYORDER=
